PathFileType	4	(X/Y/Z)	 1.9Hzhigh3min.trc
DataRate	CameraRate	NumFrames	NumMarkers	Units	OrigDataRate	OrigDataStartFrame	OrigNumFrames
200	200	9	43	m	200	626	1000
Frame#	Time	C7			LSH			RSH			MAN			RASI			LASI			HIPR			HIPL			RPSI			LPSI			COX			RTHI1			RTHI2			RTHI3			RTHI4			RLKN			RMKN			RSHA1			RSHA2			RSHA3			RSHA4			RLMAL			RMMAL			RHEEL			RMET5			RMET1			RTOE			LTHI1			LTHI2			LTHI3			LTHI4			LLKN			LMKN			LSHA1			LSHA2			LSHA3			LSHA4			LLMAL			LMMAL			LHEEL			LMET5			LMET1			LTOE			
		X1	Y1	Z1	X2	Y2	Z2	X3	Y3	Z3	X4	Y4	Z4	X5	Y5	Z5	X6	Y6	Z6	X7	Y7	Z7	X8	Y8	Z8	X9	Y9	Z9	X10	Y10	Z10	X11	Y11	Z11	X12	Y12	Z12	X13	Y13	Z13	X14	Y14	Z14	X15	Y15	Z15	X16	Y16	Z16	X17	Y17	Z17	X18	Y18	Z18	X19	Y19	Z19	X20	Y20	Z20	X21	Y21	Z21	X22	Y22	Z22	X23	Y23	Z23	X24	Y24	Z24	X25	Y25	Z25	X26	Y26	Z26	X27	Y27	Z27	X28	Y28	Z28	X29	Y29	Z29	X30	Y30	Z30	X31	Y31	Z31	X32	Y32	Z32	X33	Y33	Z33	X34	Y34	Z34	X35	Y35	Z35	X36	Y36	Z36	X37	Y37	Z37	X38	Y38	Z38	X39	Y39	Z39	X40	Y40	Z40	X41	Y41	Z41	X42	Y42	Z42	X43	Y43	Z43	
626	3.1300	-0.319170	1.505728	-0.534071	-0.253827	1.474239	-0.727763	-0.245069	1.472216	-0.330935	-0.180748	1.434126	-0.528394	-0.245240	0.983695	-0.389913	-0.248702	0.983134	-0.651933	-0.312732	1.060953	-0.351186	-0.297325	1.034250	-0.689009	-0.425076	1.021307	-0.462402	-0.422652	1.022698	-0.563890	-0.427258	1.018270	-0.517384	-0.302504	0.768538	-0.320238	-0.292469	0.708120	-0.322391	-0.222452	0.727936	-0.318901	-0.239540	0.785234	-0.318416	-0.235484	0.460637	-0.338641	-0.230625	0.459862	-0.469536	-0.359737	0.329271	-0.344779	-0.373138	0.290472	-0.357188	-0.320202	0.269668	-0.336901	-0.309771	0.307604	-0.330250	-0.412873	0.098560	-0.361101	-0.375794	0.103139	-0.452679	-0.467443	0.083712	-0.404737	-0.311416	0.033526	-0.323319	-0.254309	0.046807	-0.406397	-0.224374	0.037035	-0.398832	-0.334250	0.760436	-0.698575	-0.312718	0.702716	-0.704197	-0.253707	0.720694	-0.722903	-0.266704	0.780095	-0.719913	-0.246460	0.471245	-0.696129	-0.221379	0.464102	-0.567720	-0.371563	0.294762	-0.686747	-0.391653	0.261115	-0.675418	-0.337166	0.233792	-0.679400	-0.322070	0.273401	-0.691077	-0.427088	0.098359	-0.668122	-0.409542	0.098785	-0.576323	-0.487456	0.087558	-0.626719	-0.328357	0.035558	-0.695908	-0.278113	0.048486	-0.610980	-0.250369	0.038032	-0.612891	
627	3.1350	-0.319983	1.512371	-0.533995	-0.254821	1.481566	-0.727696	-0.245661	1.479467	-0.331019	-0.181392	1.441296	-0.528573	-0.243770	0.990240	-0.390179	-0.247536	0.989533	-0.652147	-0.309852	1.067175	-0.351114	-0.295429	1.041100	-0.688755	-0.423492	1.027885	-0.462458	-0.421171	1.029039	-0.563951	-0.425757	1.024711	-0.517442	-0.303038	0.774852	-0.320188	-0.293657	0.714307	-0.322301	-0.223453	0.733325	-0.319011	-0.239877	0.790820	-0.318578	-0.239988	0.466017	-0.338403	-0.235894	0.464580	-0.469341	-0.362342	0.332677	-0.344231	-0.375170	0.293608	-0.356434	-0.322042	0.273552	-0.336131	-0.312035	0.311615	-0.329657	-0.412707	0.100927	-0.360191	-0.375423	0.105642	-0.451553	-0.466683	0.086533	-0.403670	-0.311171	0.033605	-0.323302	-0.254408	0.046796	-0.406210	-0.224472	0.037092	-0.398911	-0.335037	0.766756	-0.698575	-0.314076	0.708825	-0.704084	-0.254816	0.726155	-0.722530	-0.267187	0.785675	-0.719602	-0.250106	0.476629	-0.695368	-0.226659	0.469586	-0.566883	-0.373909	0.298232	-0.686710	-0.393592	0.264335	-0.675410	-0.338795	0.237652	-0.679562	-0.324209	0.277453	-0.691184	-0.426883	0.100736	-0.668786	-0.408958	0.100981	-0.577123	-0.486698	0.090146	-0.627142	-0.328117	0.035611	-0.695797	-0.277993	0.048447	-0.611127	-0.250400	0.038064	-0.612933	
628	3.1400	-0.320807	1.519415	-0.533922	-0.255882	1.489328	-0.727627	-0.246294	1.487171	-0.331111	-0.182077	1.448895	-0.528759	-0.242299	0.997176	-0.390454	-0.246379	0.996288	-0.652337	-0.307031	1.073949	-0.351044	-0.293493	1.048563	-0.688422	-0.421866	1.034917	-0.462531	-0.419662	1.035834	-0.564042	-0.424231	1.031605	-0.517525	-0.303688	0.781577	-0.320152	-0.294992	0.720910	-0.322213	-0.224595	0.739096	-0.319068	-0.240334	0.796789	-0.318697	-0.244732	0.471878	-0.338127	-0.241253	0.469821	-0.469136	-0.365044	0.336466	-0.343731	-0.377294	0.297171	-0.355669	-0.323975	0.277871	-0.335303	-0.314445	0.316085	-0.329009	-0.412467	0.103721	-0.359286	-0.374861	0.108505	-0.450348	-0.465690	0.089734	-0.402668	-0.310916	0.033746	-0.323348	-0.254514	0.046773	-0.405974	-0.224581	0.037170	-0.398999	-0.335948	0.773536	-0.698555	-0.315609	0.715389	-0.703976	-0.256101	0.732042	-0.722196	-0.267810	0.791673	-0.719316	-0.254351	0.482362	-0.694780	-0.232041	0.475587	-0.566096	-0.376345	0.302102	-0.686679	-0.395580	0.267955	-0.675393	-0.340469	0.241944	-0.679798	-0.326430	0.281958	-0.691377	-0.426619	0.103531	-0.669473	-0.408215	0.103557	-0.578002	-0.485785	0.093119	-0.627514	-0.327817	0.035727	-0.695650	-0.277843	0.048430	-0.611285	-0.250441	0.038065	-0.612976	
629	3.1450	-0.321623	1.526794	-0.533849	-0.256976	1.497448	-0.727544	-0.246957	1.495256	-0.331212	-0.182790	1.456855	-0.528941	-0.240842	1.004442	-0.390739	-0.245246	1.003335	-0.652499	-0.304347	1.081268	-0.351009	-0.291515	1.056578	-0.688047	-0.420218	1.042329	-0.462626	-0.418134	1.043027	-0.564153	-0.422698	1.038892	-0.517636	-0.304448	0.788647	-0.320135	-0.296457	0.727870	-0.322133	-0.225873	0.745210	-0.319064	-0.240903	0.803087	-0.318769	-0.249654	0.478181	-0.337802	-0.246600	0.475581	-0.468928	-0.367747	0.340616	-0.343257	-0.379540	0.301031	-0.355075	-0.325963	0.282615	-0.334410	-0.316949	0.320979	-0.328291	-0.412110	0.106942	-0.358357	-0.374067	0.111738	-0.449054	-0.464469	0.093325	-0.401692	-0.310568	0.034006	-0.323448	-0.254616	0.046811	-0.405702	-0.224703	0.037242	-0.399062	-0.336974	0.780728	-0.698513	-0.317304	0.722360	-0.703876	-0.257551	0.738311	-0.721918	-0.268571	0.798046	-0.719065	-0.259139	0.488444	-0.694402	-0.237457	0.482023	-0.565386	-0.378822	0.306361	-0.686656	-0.397571	0.271951	-0.675371	-0.342144	0.246650	-0.680125	-0.328690	0.286882	-0.691669	-0.426261	0.106744	-0.670173	-0.407268	0.106531	-0.578967	-0.484685	0.096494	-0.627848	-0.327456	0.035894	-0.695468	-0.277705	0.048437	-0.611489	-0.250509	0.038096	-0.613062	
630	3.1500	-0.322413	1.534450	-0.533778	-0.258083	1.505848	-0.727445	-0.247644	1.503648	-0.331325	-0.183538	1.465101	-0.529118	-0.239414	1.011977	-0.391021	-0.244148	1.010615	-0.652632	-0.301830	1.089119	-0.351043	-0.289510	1.065081	-0.687683	-0.418562	1.050063	-0.462740	-0.416604	1.050562	-0.564279	-0.421169	1.046510	-0.517769	-0.305309	0.796005	-0.320137	-0.298036	0.735135	-0.322060	-0.227271	0.751610	-0.318985	-0.241581	0.809662	-0.318786	-0.254667	0.484863	-0.337445	-0.251851	0.481816	-0.468729	-0.370461	0.345095	-0.342777	-0.381849	0.305161	-0.354643	-0.327956	0.287752	-0.333448	-0.319515	0.326254	-0.327515	-0.411546	0.110555	-0.357410	-0.372982	0.115329	-0.447659	-0.462992	0.097300	-0.400729	-0.310126	0.034387	-0.323600	-0.254689	0.046872	-0.405365	-0.224841	0.037335	-0.399087	-0.338101	0.788278	-0.698451	-0.319138	0.729688	-0.703790	-0.259157	0.744910	-0.721694	-0.269460	0.804747	-0.718855	-0.264345	0.494887	-0.694217	-0.242822	0.488795	-0.564760	-0.381287	0.310984	-0.686636	-0.399513	0.276299	-0.675344	-0.343777	0.251736	-0.680553	-0.330944	0.292199	-0.692070	-0.425757	0.110368	-0.670890	-0.406074	0.109901	-0.580017	-0.483371	0.100252	-0.628131	-0.327006	0.036133	-0.695256	-0.277556	0.048468	-0.611729	-0.250606	0.038103	-0.613178	
631	3.1550	-0.323170	1.542326	-0.533715	-0.259193	1.514448	-0.727327	-0.248370	1.512264	-0.331441	-0.184312	1.473567	-0.529281	-0.238035	1.019710	-0.391295	-0.243093	1.018081	-0.652740	-0.299513	1.097459	-0.351170	-0.287499	1.073992	-0.687390	-0.416910	1.058061	-0.462864	-0.415079	1.058388	-0.564429	-0.419648	1.054404	-0.517906	-0.306258	0.803600	-0.320161	-0.299712	0.742644	-0.321995	-0.228774	0.758238	-0.318832	-0.242362	0.816466	-0.318745	-0.259700	0.491852	-0.337058	-0.256945	0.488450	-0.468549	-0.373144	0.349858	-0.342264	-0.384033	0.309660	-0.354082	-0.329887	0.293242	-0.332437	-0.322055	0.331892	-0.326640	-0.410709	0.114527	-0.356431	-0.371558	0.119259	-0.446137	-0.461247	0.101660	-0.399751	-0.309614	0.034824	-0.323822	-0.254639	0.046954	-0.405015	-0.224997	0.037385	-0.399048	-0.339303	0.796137	-0.698382	-0.321087	0.737326	-0.703737	-0.260891	0.751804	-0.721543	-0.270456	0.811736	-0.718698	-0.269794	0.501698	-0.694193	-0.248051	0.495820	-0.564225	-0.383692	0.315934	-0.686610	-0.401365	0.280968	-0.675311	-0.345325	0.257164	-0.681102	-0.333157	0.297854	-0.692570	-0.425056	0.114372	-0.671623	-0.404619	0.113647	-0.581156	-0.481816	0.104357	-0.628356	-0.326479	0.036465	-0.694992	-0.277384	0.048535	-0.612012	-0.250712	0.038133	-0.613342	
632	3.1600	-0.323888	1.550364	-0.533655	-0.260286	1.523175	-0.727179	-0.249065	1.521060	-0.331582	-0.185117	1.482187	-0.529431	-0.236718	1.027567	-0.391561	-0.242091	1.025681	-0.652829	-0.297393	1.106233	-0.351375	-0.285500	1.083223	-0.687213	-0.415272	1.066268	-0.463001	-0.413572	1.066450	-0.564599	-0.418150	1.062535	-0.518058	-0.307276	0.811368	-0.320206	-0.301464	0.750335	-0.321932	-0.230357	0.765051	-0.318596	-0.243222	0.823438	-0.318653	-0.264677	0.499099	-0.336656	-0.261845	0.495353	-0.468397	-0.375771	0.354869	-0.341702	-0.386111	0.314413	-0.353534	-0.331700	0.299042	-0.331374	-0.324526	0.337838	-0.325691	-0.409500	0.118824	-0.355392	-0.369745	0.123481	-0.444497	-0.459197	0.106396	-0.398731	-0.308988	0.035361	-0.324026	-0.254568	0.047166	-0.404724	-0.225153	0.037435	-0.398980	-0.340556	0.804245	-0.698306	-0.323121	0.745224	-0.703730	-0.262723	0.758942	-0.721477	-0.271540	0.818959	-0.718605	-0.275294	0.508863	-0.694259	-0.253053	0.503033	-0.563789	-0.385989	0.321176	-0.686574	-0.403076	0.285910	-0.675269	-0.346762	0.262893	-0.681786	-0.335286	0.303818	-0.693184	-0.424090	0.118702	-0.672373	-0.402822	0.117762	-0.582388	-0.479988	0.108784	-0.628520	-0.325896	0.036930	-0.694689	-0.277170	0.048636	-0.612382	-0.250790	0.038216	-0.613556	
633	3.1650	-0.324560	1.558498	-0.533594	-0.261346	1.531971	-0.726995	-0.249749	1.529955	-0.331741	-0.185928	1.490905	-0.529560	-0.235475	1.035491	-0.391819	-0.241153	1.033354	-0.652911	-0.295462	1.115382	-0.351647	-0.283531	1.092681	-0.687178	-0.413660	1.074636	-0.463159	-0.412092	1.074686	-0.564772	-0.416681	1.070843	-0.518216	-0.308341	0.819250	-0.320269	-0.303266	0.758160	-0.321865	-0.232001	0.772001	-0.318286	-0.244141	0.830529	-0.318512	-0.269611	0.506535	-0.336220	-0.266489	0.502456	-0.468273	-0.378318	0.360071	-0.341088	-0.388042	0.319366	-0.352976	-0.333380	0.305120	-0.330246	-0.326894	0.344044	-0.324660	-0.407863	0.123402	-0.354255	-0.367525	0.127959	-0.442735	-0.456844	0.111499	-0.397655	-0.308351	0.035901	-0.324188	-0.254526	0.047404	-0.404403	-0.225327	0.037487	-0.398820	-0.341845	0.812552	-0.698264	-0.325202	0.753330	-0.703786	-0.264618	0.766274	-0.721503	-0.272676	0.826375	-0.718579	-0.280656	0.516342	-0.694353	-0.257784	0.510366	-0.563455	-0.388137	0.326658	-0.686516	-0.404604	0.291077	-0.675220	-0.348044	0.268875	-0.682617	-0.337299	0.310027	-0.693910	-0.422806	0.123296	-0.673152	-0.400604	0.122190	-0.583708	-0.477846	0.113516	-0.628638	-0.325260	0.037536	-0.694343	-0.276898	0.048851	-0.612845	-0.250835	0.038363	-0.613890	
634	3.1700	-0.325184	1.566666	-0.533534	-0.262370	1.540771	-0.726772	-0.250414	1.538890	-0.331921	-0.186745	1.499657	-0.529666	-0.234314	1.043428	-0.392078	-0.240284	1.041069	-0.652997	-0.293676	1.124821	-0.351972	-0.281624	1.102292	-0.687281	-0.412084	1.083118	-0.463330	-0.410654	1.083041	-0.564957	-0.415247	1.079280	-0.518382	-0.309428	0.827210	-0.320349	-0.305090	0.766069	-0.321787	-0.233673	0.779027	-0.317910	-0.245098	0.837699	-0.318333	-0.274449	0.514091	-0.335775	-0.270864	0.509649	-0.468172	-0.380782	0.365441	-0.340388	-0.389767	0.324551	-0.352310	-0.334892	0.311415	-0.329075	-0.329140	0.350468	-0.323573	-0.405753	0.128191	-0.353044	-0.364885	0.132638	-0.440860	-0.454140	0.116905	-0.396529	-0.307638	0.036548	-0.324312	-0.254456	0.047697	-0.404045	-0.225498	0.037554	-0.398596	-0.343138	0.820989	-0.698264	-0.327290	0.761579	-0.703921	-0.266545	0.773751	-0.721618	-0.273838	0.833932	-0.718624	-0.285741	0.524051	-0.694412	-0.262182	0.517753	-0.563210	-0.390098	0.332318	-0.686433	-0.405917	0.296404	-0.675167	-0.349148	0.275053	-0.683590	-0.339164	0.316436	-0.694737	-0.421165	0.128093	-0.673976	-0.397940	0.126868	-0.585121	-0.475367	0.118502	-0.628700	-0.324582	0.038233	-0.693969	-0.276531	0.049130	-0.613379	-0.250817	0.038497	-0.614299	
